<svg width="256" height="258" viewBox="0 0 256 258" fill="none" xmlns="http://www.w3.org/2000/svg">
<g clip-path="url(#clip0_29_2)">
<mask id="mask0_29_2" style="mask-type:luminance" maskUnits="userSpaceOnUse" x="0" y="0" width="256" height="258">
<path d="M256 0H0V258H256V0Z" fill="white"/>
</mask>
<g mask="url(#mask0_29_2)">
<path d="M1.07 127.416C1.063 149.873 6.93 171.796 18.084 191.12L0 257.147L67.571 239.43C86.189 249.581 107.151 254.933 128.481 254.941H128.536C198.784 254.941 255.97 197.773 256 127.518C256.012 93.47 242.764 61.453 218.7 37.368C194.633 13.286 162.633 0.014 128.536 0C58.276 0 1.098 57.16 1.07 127.416ZM41.311 187.792L38.788 183.787C28.182 166.923 22.584 147.435 22.592 127.424C22.614 69.029 70.138 21.52 128.576 21.52C156.876 21.532 183.472 32.564 203.476 52.58C223.479 72.598 234.486 99.208 234.479 127.51C234.453 185.905 186.928 233.42 128.536 233.42H128.494C109.481 233.41 90.834 228.304 74.572 218.655L70.702 216.36L30.604 226.873L41.311 187.792Z" fill="url(#paint0_linear_29_2)"/>
<path d="M96.6781 74.1474C94.2921 68.8444 91.7811 68.7374 89.5121 68.6444C87.6541 68.5644 85.5301 68.5704 83.4081 68.5704C81.2841 68.5704 77.8331 69.3694 74.9161 72.5544C71.9961 75.7424 63.7681 83.4464 63.7681 99.1154C63.7681 114.784 75.1811 129.928 76.7721 132.055C78.3651 134.178 98.8051 167.362 131.177 180.128C158.081 190.737 163.556 188.627 169.395 188.095C175.235 187.565 188.239 180.393 190.892 172.956C193.547 165.52 193.547 159.146 192.751 157.814C191.955 156.487 189.831 155.69 186.646 154.098C183.461 152.506 167.802 144.8 164.883 143.737C161.963 142.675 159.84 142.145 157.716 145.334C155.592 148.518 149.493 155.69 147.634 157.814C145.777 159.943 143.918 160.208 140.734 158.615C137.547 157.017 127.29 153.658 115.121 142.809C105.653 134.367 99.2611 123.942 97.4031 120.753C95.5451 117.569 97.2041 115.843 98.8011 114.256C100.232 112.829 101.987 110.537 103.581 108.678C105.169 106.818 105.699 105.491 106.761 103.367C107.824 101.241 107.292 99.3814 106.497 97.7884C105.699 96.1954 99.5101 80.4444 96.6781 74.1474Z" fill="white"/>
</g>
</g>
<defs>
<linearGradient id="paint0_linear_29_2" x1="12800" y1="25714.7" x2="12800" y2="0" gradientUnits="userSpaceOnUse">
<stop stop-color="#F9F9F9"/>
<stop offset="1" stop-color="white"/>
</linearGradient>
<clipPath id="clip0_29_2">
<rect width="256" height="258" fill="white"/>
</clipPath>
</defs>
</svg>
